<svg width="1728" height="1117" viewBox="0 0 1728 1117" fill="none" xmlns="http://www.w3.org/2000/svg">
    <line x1="1723.38" y1="960.5" x2="1.54138" y2="960.5" stroke="white" stroke-opacity="0.2"/>
    <line x1="1721.83" y1="660.5" x2="0.000366211" y2="660.5" stroke="white" stroke-opacity="0.2"/>
    <line x1="1724.92" y1="240.5" x2="3.08337" y2="240.5" stroke="white" stroke-opacity="0.2"/>
    <line x1="1724.92" y1="1080.5" x2="3.08337" y2="1080.5" stroke="white" stroke-opacity="0.2"/>
    <line x1="1724.92" y1="840.5" x2="3.08337" y2="840.5" stroke="white" stroke-opacity="0.2"/>
    <line x1="1728" y1="420.5" x2="6.16589" y2="420.5" stroke="white" stroke-opacity="0.2"/>
    <line x1="1723.38" y1="540.5" x2="1.54138" y2="540.5" stroke="white" stroke-opacity="0.2"/>
    <line x1="1726.46" y1="120.5" x2="4.62439" y2="120.5" stroke="white" stroke-opacity="0.2"/>
    <line x1="1723.38" y1="900.5" x2="1.54138" y2="900.5" stroke="white" stroke-opacity="0.2"/>
    <line x1="1721.83" y1="600.5" x2="0.000366211" y2="600.5" stroke="white" stroke-opacity="0.2"/>
    <line x1="1724.92" y1="180.5" x2="3.08337" y2="180.5" stroke="white" stroke-opacity="0.2"/>
    <line x1="1724.92" y1="1020.5" x2="3.08337" y2="1020.5" stroke="white" stroke-opacity="0.2"/>
    <line x1="1723.38" y1="720.5" x2="1.54138" y2="720.5" stroke="white" stroke-opacity="0.2"/>
    <line x1="1726.46" y1="300.5" x2="4.62439" y2="300.5" stroke="white" stroke-opacity="0.2"/>
    <line x1="1724.92" y1="780.5" x2="3.08337" y2="780.5" stroke="white" stroke-opacity="0.2"/>
    <line x1="1728" y1="360.5" x2="6.16589" y2="360.5" stroke="white" stroke-opacity="0.2"/>
    <line x1="1723.38" y1="480.5" x2="1.54138" y2="480.5" stroke="white" stroke-opacity="0.2"/>
    <line x1="1726.46" y1="60.5" x2="4.62439" y2="60.5" stroke="white" stroke-opacity="0.2"/>
    <line x1="59.4995" y1="1117" x2="59.4995" stroke="white" stroke-opacity="0.2"/>
    <line x1="539.5" y1="1116" x2="539.5" y2="-1" stroke="white" stroke-opacity="0.2"/>
    <line x1="299.5" y1="1117" x2="299.5" stroke="white" stroke-opacity="0.2"/>
    <line x1="779.5" y1="1116" x2="779.5" y2="-1" stroke="white" stroke-opacity="0.2"/>
    <line x1="1079.5" y1="1115" x2="1079.5" y2="-2" stroke="white" stroke-opacity="0.2"/>
    <line x1="1499.5" y1="1117" x2="1499.5" stroke="white" stroke-opacity="0.2"/>
    <line x1="179.5" y1="1118" x2="179.5" y2="1" stroke="white" stroke-opacity="0.2"/>
    <line x1="659.5" y1="1117" x2="659.5" stroke="white" stroke-opacity="0.2"/>
    <line x1="419.5" y1="1118" x2="419.5" y2="1" stroke="white" stroke-opacity="0.2"/>
    <line x1="899.5" y1="1117" x2="899.5" stroke="white" stroke-opacity="0.2"/>
    <line x1="1319.5" y1="1119" x2="1319.5" y2="2" stroke="white" stroke-opacity="0.2"/>
    <line x1="1199.5" y1="1116" x2="1199.5" y2="-1" stroke="white" stroke-opacity="0.2"/>
    <line x1="1619.5" y1="1118" x2="1619.5" y2="1" stroke="white" stroke-opacity="0.2"/>
    <line x1="119.5" y1="1117" x2="119.5" stroke="white" stroke-opacity="0.2"/>
    <line x1="599.5" y1="1116" x2="599.5" y2="-1" stroke="white" stroke-opacity="0.2"/>
    <line x1="359.5" y1="1117" x2="359.5" stroke="white" stroke-opacity="0.2"/>
    <line x1="839.5" y1="1116" x2="839.5" y2="-1" stroke="white" stroke-opacity="0.2"/>
    <line x1="1139.5" y1="1115" x2="1139.5" y2="-2" stroke="white" stroke-opacity="0.2"/>
    <line x1="1559.5" y1="1117" x2="1559.5" stroke="white" stroke-opacity="0.2"/>
    <line x1="239.5" y1="1118" x2="239.5" y2="1" stroke="white" stroke-opacity="0.2"/>
    <line x1="719.5" y1="1117" x2="719.5" stroke="white" stroke-opacity="0.2"/>
    <line x1="1019.5" y1="1116" x2="1019.5" y2="-1" stroke="white" stroke-opacity="0.2"/>
    <line x1="1439.5" y1="1118" x2="1439.5" y2="1" stroke="white" stroke-opacity="0.2"/>
    <line x1="479.5" y1="1118" x2="479.5" y2="1" stroke="white" stroke-opacity="0.2"/>
    <line x1="959.5" y1="1117" x2="959.5" stroke="white" stroke-opacity="0.2"/>
    <line x1="1379.5" y1="1119" x2="1379.5" y2="2" stroke="white" stroke-opacity="0.2"/>
    <line x1="1259.5" y1="1116" x2="1259.5" y2="-1" stroke="white" stroke-opacity="0.2"/>
    <line x1="1679.5" y1="1118" x2="1679.5" y2="1" stroke="white" stroke-opacity="0.2"/>
</svg>
